<mxfile host="app.diagrams.net" modified="2022-08-09T06:11:37.067Z" agent="5.0 (Macintosh; Intel Mac OS X 10_15_7) AppleWebKit/537.36 (KHTML, like Gecko) Chrome/103.0.0.0 Safari/537.36" etag="-cP7ueAwTXZ7lH5gNpIj" version="20.1.3" type="github">
  <diagram id="D8mqumVcgbaVF4cNNUWT" name="第 1 页">
    <mxGraphModel dx="2066" dy="1154" grid="1" gridSize="10" guides="1" tooltips="1" connect="1" arrows="1" fold="1" page="1" pageScale="1" pageWidth="827" pageHeight="1169" math="0" shadow="0">
      <root>
        <mxCell id="0" />
        <mxCell id="1" parent="0" />
        <mxCell id="MCHU5rm9WP5Hb_YASP4m-5" style="edgeStyle=orthogonalEdgeStyle;rounded=0;orthogonalLoop=1;jettySize=auto;html=1;exitX=0.5;exitY=0.5;exitDx=0;exitDy=0;exitPerimeter=0;entryX=0;entryY=0.5;entryDx=0;entryDy=0;" edge="1" parent="1" source="MCHU5rm9WP5Hb_YASP4m-1" target="MCHU5rm9WP5Hb_YASP4m-4">
          <mxGeometry relative="1" as="geometry" />
        </mxCell>
        <mxCell id="MCHU5rm9WP5Hb_YASP4m-1" value="主播" style="shape=umlActor;verticalLabelPosition=bottom;verticalAlign=top;html=1;outlineConnect=0;" vertex="1" parent="1">
          <mxGeometry x="60" y="430" width="30" height="60" as="geometry" />
        </mxCell>
        <mxCell id="MCHU5rm9WP5Hb_YASP4m-3" value="PK未结束" style="text;html=1;align=center;verticalAlign=middle;resizable=0;points=[];autosize=1;strokeColor=none;fillColor=none;" vertex="1" parent="1">
          <mxGeometry x="210" y="245" width="80" height="30" as="geometry" />
        </mxCell>
        <mxCell id="MCHU5rm9WP5Hb_YASP4m-8" style="edgeStyle=orthogonalEdgeStyle;rounded=0;orthogonalLoop=1;jettySize=auto;html=1;exitX=1;exitY=0.5;exitDx=0;exitDy=0;entryX=0;entryY=0.5;entryDx=0;entryDy=0;" edge="1" parent="1" source="MCHU5rm9WP5Hb_YASP4m-4" target="MCHU5rm9WP5Hb_YASP4m-6">
          <mxGeometry relative="1" as="geometry" />
        </mxCell>
        <mxCell id="MCHU5rm9WP5Hb_YASP4m-4" value="点击再来一局" style="rounded=0;whiteSpace=wrap;html=1;fillColor=#dae8fc;strokeColor=#6c8ebf;" vertex="1" parent="1">
          <mxGeometry x="200" y="430" width="120" height="60" as="geometry" />
        </mxCell>
        <mxCell id="MCHU5rm9WP5Hb_YASP4m-6" value="当前PK阶段" style="rhombus;whiteSpace=wrap;html=1;fillColor=#f8cecc;strokeColor=#b85450;" vertex="1" parent="1">
          <mxGeometry x="414" y="420" width="186" height="80" as="geometry" />
        </mxCell>
      </root>
    </mxGraphModel>
  </diagram>
</mxfile>
